<svg xmlns="http://www.w3.org/2000/svg" viewBox="0 0 760 470" width="760" height="470" role="img" aria-label="Set seated posture exercise demonstration">
  <defs>
    <linearGradient id="bg" x1="0" y1="0" x2="1" y2="1"><stop stop-color="#263746"/><stop offset=".55" stop-color="#162231"/><stop offset="1" stop-color="#09131f"/></linearGradient>
    <linearGradient id="skin" x1="0" y1="0" x2="1" y2="1"><stop stop-color="#d89a73"/><stop offset="1" stop-color="#9e654c"/></linearGradient>
    <linearGradient id="shirt" x1="0" y1="0" x2="1" y2="1"><stop stop-color="#1d2d3f"/><stop offset="1" stop-color="#0d141c"/></linearGradient>
    <linearGradient id="shorts" x1="0" y1="0" x2="1" y2="1"><stop stop-color="#202f3e"/><stop offset="1" stop-color="#10161d"/></linearGradient>
    <filter id="shadow"><feDropShadow dx="0" dy="10" stdDeviation="10" flood-color="#000" flood-opacity=".42"/></filter>
    <marker id="arrow" markerWidth="12" markerHeight="12" refX="8" refY="6" orient="auto"><path d="M0,0 L0,12 L10,6 z" fill="#21c7ff"/></marker>
  </defs>
  <rect width="760" height="470" rx="24" fill="url(#bg)"/>
  <ellipse cx="390" cy="405" rx="230" ry="28" fill="#000" opacity=".26"/>
  <path d="M20 405 H740" stroke="#6a7f92" stroke-width="3" opacity=".38"/>
  
  <g><line x1="355" y1="245" x2="340" y2="335" stroke="url(#shorts)" stroke-width="35" stroke-linecap="round"/><line x1="340" y1="335" x2="330" y2="400" stroke="url(#skin)" stroke-width="28" stroke-linecap="round"/><line x1="405" y1="245" x2="420" y2="335" stroke="url(#shorts)" stroke-width="35" stroke-linecap="round"/><line x1="420" y1="335" x2="430" y2="400" stroke="url(#skin)" stroke-width="28" stroke-linecap="round"/><path d="M 312 394 q 16 0 27 6 q 8 7 -2 12 h -34 q -9 -2 -4 -9z" fill="#f3f7fb" stroke="#8da0b3" stroke-width="2"/><path d="M 412 394 q 16 0 27 6 q 8 7 -2 12 h -34 q -9 -2 -4 -9z" fill="#f3f7fb" stroke="#8da0b3" stroke-width="2"/><path d="M 340 145 Q 325 200 346 245 Q 380 263 414 245 Q 435 200 420 145 Z" fill="url(#shirt)" stroke="#34485c" stroke-width="2"/><line x1="340" y1="145" x2="320" y2="215" stroke="url(#skin)" stroke-width="27" stroke-linecap="round"/><line x1="320" y1="215" x2="315" y2="280" stroke="url(#skin)" stroke-width="22" stroke-linecap="round"/><line x1="420" y1="145" x2="440" y2="215" stroke="url(#skin)" stroke-width="27" stroke-linecap="round"/><line x1="440" y1="215" x2="445" y2="280" stroke="url(#skin)" stroke-width="22" stroke-linecap="round"/><circle cx="315" cy="280" r="12" fill="#d89a73"/><circle cx="445" cy="280" r="12" fill="#d89a73"/><ellipse cx="380" cy="90" rx="31" ry="37" fill="url(#skin)"/><path d="M351 80 Q370 42 410 74 Q390 58 351 80" fill="#11161c"/><path d="M385 96 q18 7 20 23" fill="none" stroke="#3d251f" stroke-width="5" opacity=".7"/></g>
  <path d="M380 170 Q398 105 380 80" fill="none" stroke="#21c7ff" stroke-width="5" stroke-linecap="round" marker-end="url(#arrow)" opacity=".9"/>
  </svg>